<svg xmlns="http://www.w3.org/2000/svg" xmlns:xlink="http://www.w3.org/1999/xlink" width="500" zoomAndPan="magnify" viewBox="0 0 375 374.999991" height="500" preserveAspectRatio="xMidYMid meet" version="1.0"><defs><clipPath id="1ed32acb78"><path d="M 148 49.230469 L 206 49.230469 L 206 127 L 148 127 Z M 148 49.230469 " clip-rule="nonzero"/></clipPath><clipPath id="9cb2708bf7"><path d="M 59 250 L 246 250 L 246 325.976562 L 59 325.976562 Z M 59 250 " clip-rule="nonzero"/></clipPath><clipPath id="da9fadc624"><path d="M 185 49.230469 L 227 49.230469 L 227 127 L 185 127 Z M 185 49.230469 " clip-rule="nonzero"/></clipPath><clipPath id="753a5fcc5b"><path d="M 230 231 L 315.984375 231 L 315.984375 325.976562 L 230 325.976562 Z M 230 231 " clip-rule="nonzero"/></clipPath></defs><path fill="#53afe1" d="M 205.046875 138.125 L 146.738281 130.722656 L 122.046875 178.925781 L 215.855469 190.835938 Z M 205.046875 138.125 " fill-opacity="1" fill-rule="nonzero"/><path fill="#53afe1" d="M 215.855469 192.964844 C 215.769531 192.964844 215.683594 192.964844 215.578125 192.941406 L 121.746094 181.03125 C 121.066406 180.945312 120.453125 180.519531 120.132812 179.902344 C 119.816406 179.285156 119.816406 178.5625 120.113281 177.945312 L 144.808594 129.742188 C 145.210938 128.957031 146.082031 128.507812 146.972656 128.59375 L 205.28125 135.996094 C 206.171875 136.105469 206.914062 136.785156 207.085938 137.679688 L 217.894531 190.390625 C 218.019531 191.070312 217.828125 191.75 217.363281 192.261719 C 217 192.707031 216.449219 192.964844 215.855469 192.964844 Z M 125.316406 177.179688 L 213.179688 188.347656 L 203.285156 140.039062 L 147.949219 133.019531 Z M 125.316406 177.179688 " fill-opacity="1" fill-rule="nonzero"/><path fill="#53afe1" d="M 228.53125 252.632812 L 218.679688 204.558594 L 115.609375 191.476562 L 93.019531 235.507812 L 228.402344 252.71875 Z M 228.53125 252.632812 " fill-opacity="1" fill-rule="nonzero"/><path fill="#53afe1" d="M 228.402344 254.84375 C 228.320312 254.84375 228.234375 254.84375 228.128906 254.824219 L 92.765625 237.636719 C 92.085938 237.550781 91.46875 237.125 91.148438 236.507812 C 90.832031 235.890625 90.832031 235.167969 91.128906 234.550781 L 113.699219 190.496094 C 114.105469 189.710938 114.972656 189.261719 115.867188 189.347656 L 218.933594 202.453125 C 219.824219 202.558594 220.570312 203.238281 220.738281 204.132812 L 230.589844 252.207031 C 230.761719 253.078125 230.398438 253.953125 229.65625 254.417969 L 229.53125 254.503906 C 229.191406 254.71875 228.808594 254.84375 228.402344 254.84375 Z M 96.308594 233.785156 L 225.878906 250.25 L 216.894531 206.492188 L 116.800781 193.773438 Z M 96.308594 233.785156 " fill-opacity="1" fill-rule="nonzero"/><path fill="#53afe1" d="M 187.316406 51.570312 L 151.027344 117.9375 L 203.179688 124.554688 Z M 187.316406 51.570312 " fill-opacity="1" fill-rule="nonzero"/><g clip-path="url(#1ed32acb78)"><path fill="#53afe1" d="M 203.179688 126.679688 C 203.09375 126.679688 203.007812 126.679688 202.902344 126.660156 L 150.753906 120.023438 C 150.050781 119.9375 149.457031 119.511719 149.117188 118.875 C 148.800781 118.257812 148.800781 117.511719 149.140625 116.894531 L 185.449219 50.546875 C 185.875 49.761719 186.742188 49.335938 187.613281 49.460938 C 188.484375 49.589844 189.207031 50.25 189.375 51.121094 L 205.238281 124.105469 C 205.386719 124.785156 205.195312 125.488281 204.730469 126 C 204.347656 126.445312 203.773438 126.679688 203.179688 126.679688 Z M 154.382812 116.214844 L 200.460938 122.0625 L 186.445312 57.566406 Z M 154.382812 116.214844 " fill-opacity="1" fill-rule="nonzero"/></g><path fill="#53afe1" d="M 84.460938 252.25 L 61.230469 297.558594 L 243.121094 323.851562 L 232.289062 271.03125 Z M 84.460938 252.25 " fill-opacity="1" fill-rule="nonzero"/><g clip-path="url(#9cb2708bf7)"><path fill="#53afe1" d="M 243.121094 325.980469 C 243.011719 325.980469 242.90625 325.980469 242.820312 325.957031 L 60.914062 299.664062 C 60.234375 299.558594 59.640625 299.15625 59.320312 298.539062 C 59.003906 297.921875 59.003906 297.199219 59.320312 296.582031 L 82.550781 251.269531 C 82.953125 250.484375 83.824219 250.039062 84.714844 250.121094 L 232.566406 268.90625 C 233.457031 269.011719 234.199219 269.691406 234.371094 270.585938 L 245.199219 323.40625 C 245.347656 324.085938 245.136719 324.789062 244.667969 325.296875 C 244.265625 325.746094 243.714844 325.980469 243.121094 325.980469 Z M 64.480469 295.878906 L 240.445312 321.320312 L 230.527344 272.945312 L 85.652344 254.546875 Z M 64.480469 295.878906 " fill-opacity="1" fill-rule="nonzero"/></g><path fill="#53afe1" d="M 218.679688 204.558594 L 228.53125 252.632812 L 283.273438 218.148438 L 283.652344 217.875 L 260.722656 178.308594 L 218.976562 204.601562 Z M 218.679688 204.558594 " fill-opacity="1" fill-rule="nonzero"/><path fill="#53afe1" d="M 228.53125 254.757812 C 228.253906 254.757812 227.957031 254.695312 227.703125 254.589844 C 227.066406 254.3125 226.597656 253.738281 226.449219 253.058594 L 216.597656 204.984375 C 216.472656 204.300781 216.660156 203.621094 217.109375 203.109375 C 217.449219 202.75 217.914062 202.515625 218.402344 202.453125 L 259.597656 176.5 C 260.085938 176.203125 260.679688 176.09375 261.230469 176.246094 C 261.785156 176.371094 262.273438 176.734375 262.570312 177.242188 L 285.5 216.832031 C 286.054688 217.808594 285.777344 219.042969 284.84375 219.660156 L 284.460938 219.914062 L 229.65625 254.441406 C 229.316406 254.652344 228.914062 254.757812 228.53125 254.757812 Z M 221.101562 205.792969 L 229.996094 249.207031 L 280.808594 217.191406 L 260 181.285156 Z M 221.101562 205.792969 " fill-opacity="1" fill-rule="nonzero"/><path fill="#53afe1" d="M 205.046875 138.125 L 215.855469 190.835938 L 215.941406 190.859375 L 254.074219 166.820312 L 228.851562 123.277344 L 205.238281 138.144531 Z M 205.046875 138.125 " fill-opacity="1" fill-rule="nonzero"/><path fill="#53afe1" d="M 215.941406 192.984375 C 215.832031 192.984375 215.726562 192.984375 215.621094 192.964844 C 214.730469 192.835938 213.945312 192.15625 213.773438 191.285156 L 202.964844 138.570312 C 202.839844 137.890625 203.03125 137.210938 203.496094 136.699219 C 203.792969 136.378906 204.15625 136.167969 204.582031 136.082031 L 227.726562 121.488281 C 228.214844 121.191406 228.808594 121.085938 229.359375 121.234375 C 229.910156 121.363281 230.398438 121.722656 230.699219 122.234375 L 255.921875 165.777344 C 256.496094 166.777344 256.179688 168.03125 255.222656 168.648438 L 217.066406 192.644531 C 216.726562 192.859375 216.34375 192.984375 215.941406 192.984375 Z M 207.445312 139.273438 L 217.320312 187.453125 L 251.210938 166.117188 L 228.128906 126.253906 Z M 207.445312 139.273438 " fill-opacity="1" fill-rule="nonzero"/><path fill="#53afe1" d="M 203.222656 124.554688 L 224.414062 111.195312 L 187.316406 51.570312 L 203.179688 124.554688 Z M 203.222656 124.554688 " fill-opacity="1" fill-rule="nonzero"/><g clip-path="url(#da9fadc624)"><path fill="#53afe1" d="M 203.222656 126.679688 C 203.136719 126.679688 203.050781 126.679688 202.964844 126.660156 L 202.925781 126.660156 C 202.03125 126.550781 201.308594 125.894531 201.117188 125 L 185.234375 52.015625 C 185.023438 50.992188 185.554688 49.972656 186.511719 49.589844 C 187.464844 49.207031 188.570312 49.570312 189.121094 50.441406 L 226.21875 110.089844 C 226.832031 111.085938 226.535156 112.386719 225.539062 113.023438 L 204.324219 126.382812 C 204.007812 126.574219 203.601562 126.679688 203.222656 126.679688 Z M 191.988281 63.121094 L 204.601562 121.171875 L 221.480469 110.535156 Z M 191.988281 63.121094 " fill-opacity="1" fill-rule="nonzero"/></g><path fill="#53afe1" d="M 292.53125 233.191406 L 232.4375 271.054688 L 232.289062 271.03125 L 243.121094 323.851562 L 313.0625 268.628906 Z M 292.53125 233.191406 " fill-opacity="1" fill-rule="nonzero"/><g clip-path="url(#753a5fcc5b)"><path fill="#53afe1" d="M 243.121094 325.980469 C 242.863281 325.980469 242.628906 325.9375 242.398438 325.851562 C 241.695312 325.59375 241.1875 325 241.039062 324.277344 L 230.210938 271.457031 C 230.082031 270.777344 230.273438 270.097656 230.738281 269.585938 C 231.015625 269.289062 231.378906 269.074219 231.738281 268.96875 L 291.382812 231.382812 C 291.871094 231.082031 292.464844 230.976562 293.019531 231.125 C 293.570312 231.253906 294.058594 231.617188 294.355469 232.125 L 314.890625 267.566406 C 315.417969 268.480469 315.207031 269.648438 314.359375 270.308594 L 244.414062 325.53125 C 244.054688 325.828125 243.609375 325.980469 243.121094 325.980469 Z M 234.6875 272.140625 L 244.519531 320.042969 L 310.300781 268.117188 L 291.785156 236.167969 Z M 234.6875 272.140625 " fill-opacity="1" fill-rule="nonzero"/></g></svg>